# xmcd
#
# Track frame offsets:
#	150
#	16769
#	37729
#	58277
#	78861
#	98980
#	123947
#	147454
#	164242
#	177768
#
# Disc length: 2609 seconds
#
# Revision: 1
# Processed by: cddbd v1.5.2PL0 Copyright (c) Steve Scherf et al.
# Submitted via: audiograbber 1.83.01
#
DISCID=7f0a2f0a
DTITLE=Taryn - Bluezz
DYEAR=2008
DGENRE=Blues
TTITLE0=Evil Gal Blues
TTITLE1=Maybe I'm Amazed
TTITLE2=Kosmic Blues
TTITLE3=Don't Explain
TTITLE4=Angel
TTITLE5=Fine and Mellow
TTITLE6=Georgia On My Mind
TTITLE7=I Just Wanna Make Love to You
TTITLE8=Respect
TTITLE9=Rock and Roll
EXTD=
EXTT0=
EXTT1=
EXTT2=
EXTT3=
EXTT4=
EXTT5=
EXTT6=
EXTT7=
EXTT8=
EXTT9=
PLAYORDER=
